<?xml version="1.0" encoding="utf-8"?>
<!-- Uploaded to SVGRepo https://www.svgrepo.com -->
<svg version="1.1" id="Layer_1" xmlns="http://www.w3.org/2000/svg" xmlns:xlink="http://www.w3.org/1999/xlink" x="0px" y="0px"
	 width="127px" height="260px" viewBox="0 0 127 260" enable-background="new 0 0 127 260" xml:space="preserve">
<path d="M110.022,48.309l-19.244-2.448l1.931-3.204l6.219-10.67L82.086,19.879l-6.808-1.838L62.864,3.861L45.81,4.356L38.296,2
	l-6.761,7.938l-0.353,6.973l-8.598,11.071l0.683,7.797l-8.033,17.266L9.817,77.473l5.794,13.851l-3.203,21.294l-3.675,2.921
	l-2.897,35.122l1.083,7.561l-1.602,7.844l5.866,17.384l-4.688,27.372L2.02,216.97l7.161,8.009l2.708,10.153l16.961,1.484
	l-4.24-10.082l7.537-15.359l8.033-7.537l-8.645-15.665l12.814-12.649l4.547-14.228l-3.463-3.863l-0.613-7.703l13.804,0.565
	l8.268-15.287l24.168-4.947l6.667-9.493l-2.002-10.812l-6.879-6.996l5.559-29.893L110.8,53.752l13.003-6.478l1.177-11.059
	l-6.552-0.092l-0.925,6.684L110.022,48.309z M29.061,237.532l-0.239,18.555L46.102,258l0.782-1.913l-5.684-1.753l-8.4-7.943
	L29.061,237.532z"/>
</svg>
