<?xml version="1.0" encoding="utf-8"?>
<!-- Uploaded to SVGRepo https://www.svgrepo.com -->
<svg version="1.1" id="Layer_1" xmlns="http://www.w3.org/2000/svg" xmlns:xlink="http://www.w3.org/1999/xlink" x="0px" y="0px"
	 width="260px" height="134px" viewBox="0 0 260 134" enable-background="new 0 0 260 134" xml:space="preserve">
<polygon fill="#7b2abe" points="258,64.976 257.262,44.398 249.355,32.062 249.498,14.295 234.827,11.151 221.537,13.485 195.745,3.006 
	186.456,1.958 184.646,14.342 177.239,23.273 168.975,20.892 144.826,26.894 112.317,46.947 123.224,71.978 118.794,79.575 
	105.981,70.906 73.996,73.002 55.491,82.552 39.606,73.383 24.316,87.363 25.078,82.028 10.645,71.215 2,86.839 6.549,97.437 
	21.744,108.607 33.08,108.178 51.609,113.561 62.803,102.939 77.616,104.034 90.977,98.937 93.383,99.557 90.167,103.224 
	100.051,118.538 128.535,125.635 137.062,125.064 172.571,132.042 193.244,120.229 205.604,121.515 222.18,116.871 224.753,109.774 
	240.328,98.556 237.375,83.505 249.355,66.714 "/>
</svg>
