<?xml version="1.0" encoding="iso-8859-1"?>
<!-- Generator: Adobe Illustrator 19.0.0, SVG Export Plug-In . SVG Version: 6.00 Build 0)  -->
<svg version="1.1" id="Layer_1" xmlns="http://www.w3.org/2000/svg" xmlns:xlink="http://www.w3.org/1999/xlink" x="0px" y="0px"
	 viewBox="0 0 512.002 512.002" style="enable-background:new 0 0 512.002 512.002;" xml:space="preserve">
<g>
	<g>
		<path fill="#7b2abe" d="M508.06,186.009l-33.135-48.36c-6.749-9.852-20.018-12.72-30.238-6.534l-74.14,44.891l-46.103,2.211l-94.11-77.357
			l7.147-37.631c1.699-8.946-2.159-18.037-9.773-23.03L184.72,12.01c-3.669-2.405-7.96-3.687-12.348-3.687h-56.846
			c-7.15,0-13.873,3.395-18.118,9.148L79.284,42.035c-4.406,5.971-5.587,13.729-3.157,20.74l14.235,41.083l-49.8,61.321
			c-5.619,6.917-6.627,16.497-2.576,24.435l3.763,7.37l-23.474,4.502c-7.192,1.38-13.265,6.169-16.279,12.845
			c-3.016,6.674-2.595,14.397,1.124,20.706l33.349,56.549c2.945,4.994,7.704,8.66,13.283,10.233l14.334,4.044l10.848,70.506
			c0.308,2.001,0.884,3.949,1.713,5.797l48.573,108.219c2.779,6.192,8.203,10.8,14.763,12.542c1.906,0.506,3.847,0.754,5.778,0.754
			c4.719,0,9.371-1.483,13.264-4.32l42.048-30.646c4.82-3.513,8.049-8.793,8.979-14.685l11.518-72.946l128.871-86.594
			c8.076-5.426,11.752-15.427,9.115-24.792l-13.355-47.434l18.523-0.889l47.65,82.18c3.973,6.852,11.255,11.112,19.176,11.219
			c0.101,0.001,0.203,0.001,0.303,0.001c7.804,0,15.063-4.045,19.167-10.703l57.635-93.52
			C513.324,202.971,513.09,193.353,508.06,186.009z"/>
	</g>
</g>
<g>
</g>
<g>
</g>
<g>
</g>
<g>
</g>
<g>
</g>
<g>
</g>
<g>
</g>
<g>
</g>
<g>
</g>
<g>
</g>
<g>
</g>
<g>
</g>
<g>
</g>
<g>
</g>
<g>
</g>
</svg>
