<?xml version="1.0" encoding="utf-8"?>
<!-- Uploaded to SVGRepo https://www.svgrepo.com -->
<svg version="1.1" id="Layer_1" xmlns="http://www.w3.org/2000/svg" xmlns:xlink="http://www.w3.org/1999/xlink" x="0px" y="0px"
	 width="260px" height="105px" viewBox="0 0 260 105" enable-background="new 0 0 260 105" xml:space="preserve">
<path fill="#7b2abe" d="M258,31.74l-12.494-11.472l-10.644-1.85L232.624,8.18l-16.231-5.921l-13.727,21.957l-5.005,0.318l-2.168,9.639
	l-11.225,3.718l1.392,6.362l-4.212,5.604l-5.692-7.701l-13.657,12.107l-7.771,10.168l-25.87,7.665l-8.054,19.702l-11.155-3.595
	l-11.26,1.287l15.402,13.252l10.873-3.754l10.556,1.146l6.044-7.367l13.358-1.991l11.384,5.639l4.37-3.489l9.939,0.123l5.586-7.789
	l-1.339-4.194l6.291-5.427l-0.987-5.834l6.679-3.383l2.961-18.609l4.018-3.437h22.433l5.868,3.225l16.336-3.366l-6.82-8.705
	L258,31.74z M58.656,71.161l0.846-9.621l-2.415-3.683l1.868-18.804L53.21,28.78l-10.115-8.336l-3.947-5.903l-10.891,7.366
	l-2.062-2.467l-10.679,2.273l1.991-8.282L5.172,8.391L2,13.043l3.436,20.072l3.031,4.687l-0.264,9.393l12.811,18.398l3.578,10.274
	l3.859,1.656L57.44,96.097l16.336,1.604l-6.08-15.631L58.656,71.161z"/>
</svg>
