<?xml version="1.0" encoding="utf-8"?>
<!-- Uploaded to SVGRepo https://www.svgrepo.com -->
<svg version="1.1" id="Layer_1" xmlns="http://www.w3.org/2000/svg" xmlns:xlink="http://www.w3.org/1999/xlink" x="0px" y="0px"
	 width="260px" height="175px" viewBox="0 0 260 175" enable-background="new 0 0 260 175" xml:space="preserve">
<polygon points="258,63.607 256.153,59.227 243.366,51.602 227.146,51.72 218.289,41.112 208.084,45.232 199.961,42.13 
	194.326,44.024 183.741,25.53 176.234,24.891 171.167,5.166 150.897,2.088 146.943,7.155 130.012,6.942 124.566,14.875 
	124.021,24.749 118.717,19.326 107.895,21.173 105.077,15.656 85.281,17.337 57.718,5.569 42.232,4.716 30.629,15.111 
	35.175,31.166 11.756,52.241 13.414,63.773 8.962,61.855 2,71.564 13.366,85.795 34.986,89.915 39.674,95.291 58.31,91.028 
	60.607,86.482 78.319,82.243 97.239,93.657 100.436,103.91 106.64,108.741 106.309,116.886 111.234,126.311 100.412,129.342 
	96.387,136.825 85.447,146.604 92.835,153.306 114.005,141.513 124.329,128.324 130.225,124.535 141.781,122.735 140.052,127.021 
	139.507,127.85 146.09,135.593 166.573,135.688 167.591,140.211 149.95,150.061 165.744,157.923 165.887,163.133 162.998,169.36 
	168.42,172.912 177.537,169.644 197.357,156.834 209.717,157.402 211.564,149.54 204.745,149.091 194.894,152.974 187.388,143.881 
	171.165,133.699 191.034,132.302 191.247,132.42 200.246,123.54 224.636,112.908 233.965,112.056 235.22,101.045 244.763,94.935 
	255.301,94.58 257.834,84.777 253.264,71.658 "/>
</svg>
