<?xml version="1.0" encoding="utf-8"?>
<!-- Uploaded to SVGRepo https://www.svgrepo.com -->
<svg version="1.1" id="Layer_1" xmlns="http://www.w3.org/2000/svg" xmlns:xlink="http://www.w3.org/1999/xlink" x="0px" y="0px"
	 width="260px" height="205px" viewBox="0 0 260 205" enable-background="new 0 0 260 205" xml:space="preserve">
<polygon fill="#7b2abe" points="196.361,197.581 191.386,202.557 55.8,185.142 2,117.194 2,108.331 12.729,108.331 12.729,124.191 31.388,126.523 
	57.976,114.861 105.595,120.519 130,118.372 154.068,102.5 167.596,78.477 188.12,65.882 199.782,49.556 239.432,14.105 
	242.697,2.443 247.362,2.443 245.029,28.099 258,28.099 258,68.215 245.496,81.276 236.866,72.646 236.633,64.949 228.003,73.579 
	228.003,110.663 236.166,110.663 238.965,119.992 229.636,123.724 217.974,123.724 210.044,126.989 215.642,132.587 196.05,179.234 
	"/>
</svg>
