<?xml version="1.0" encoding="utf-8"?>
<!-- Uploaded to SVGRepo https://www.svgrepo.com -->
<svg version="1.1" id="Layer_1" xmlns="http://www.w3.org/2000/svg" xmlns:xlink="http://www.w3.org/1999/xlink" x="0px" y="0px"
	 width="196px" height="260px" viewBox="0 0 196 260" enable-background="new 0 0 196 260" xml:space="preserve">
<path d="M186.695,112.9l-3.258-34.73l-11.126-8.64l4.586-16.532l-4.682-20.129l-14.746-5.623l-12.212-10.475l-7.434-0.603
	l-20.249,19.525l-10.981-1.762l3.113-7.506L89.119,14.237l-2.003-8.302L62.786,2l2.679,29.059l6.65,5.93l-11.96-0.041l-1.424,8.061
	l0.796,3.306l-11.898-7.168l-14.553,1.279l-4.417,7.072l2.486,16.436l-4.344,24.304l-14.047,13.129l-9.509,0.145l5.02,14.409
	l-6.203,20.056l7.651,15.905l-5.068,3.379l3.041,23.363l10.064,11.174l11.778,2.003l19.96,5.985l-10.957,12.936l-7.723,31.52
	l18.825,3.669l12.623-2.076l15.953,2.582L94.065,258l5.02-7.603l16.774,4.199l8.182-6.468l25.921-3.186l-0.845-15.253l21.287-14.312
	l1.834-8.327l-23.218-18.005L134.374,160.3l10.173,0.075l35.777-24.884l9.22,1.762l4.393-14.553L186.695,112.9z"/>
</svg>
