<?xml version="1.0" encoding="iso-8859-1"?>
<!-- Generator: Adobe Illustrator 19.0.0, SVG Export Plug-In . SVG Version: 6.00 Build 0)  -->
<svg version="1.1" id="Layer_1" xmlns="http://www.w3.org/2000/svg" xmlns:xlink="http://www.w3.org/1999/xlink" x="0px" y="0px"
	 viewBox="0 0 512 512" style="enable-background:new 0 0 512 512;" xml:space="preserve">
<path style="fill:#ED1F34;" d="M395.901,7.286H116.099C56.003,7.286,7.286,56.004,7.286,116.099v279.803
	c0,60.095,48.717,108.812,108.812,108.812h279.803c60.095,0,108.812-48.717,108.812-108.812V116.099
	C504.714,56.004,455.997,7.286,395.901,7.286z"/>
<path d="M395.901,512H116.099C52.082,512,0,459.918,0,395.901V116.099C0,52.082,52.082,0,116.099,0h279.803
	C459.918,0,512,52.082,512,116.099v279.803C512,459.918,459.918,512,395.901,512z M116.099,14.573
	c-55.982,0-101.526,45.544-101.526,101.526v279.803c0,55.981,45.544,101.526,101.526,101.526h279.803
	c55.981,0,101.526-45.545,101.526-101.526V116.099c0-55.981-45.545-101.526-101.526-101.526
	C395.902,14.573,116.099,14.573,116.099,14.573z"/>
<polygon style="fill:#FFE000;" points="70.527,143.972 112.105,141.824 126.996,102.945 141.887,141.824 183.465,143.972 
	151.09,170.149 161.896,210.355 126.996,187.654 92.096,210.355 102.901,170.149 "/>
<path d="M161.895,217.641c-1.38,0-2.762-0.391-3.973-1.178l-30.926-20.116l-30.927,20.116c-2.53,1.648-5.814,1.562-8.256-0.214
	c-2.442-1.774-3.537-4.871-2.754-7.786l9.575-35.629l-28.688-23.196c-2.348-1.898-3.282-5.047-2.349-7.917
	c0.933-2.871,3.539-4.87,6.554-5.026l36.845-1.904l13.196-34.453c1.08-2.819,3.786-4.68,6.804-4.68l0,0
	c3.018,0,5.725,1.861,6.805,4.68l13.195,34.453l36.845,1.904c3.015,0.156,5.621,2.155,6.554,5.026s-0.001,6.02-2.348,7.917
	l-28.689,23.196l9.575,35.629c0.783,2.915-0.312,6.011-2.754,7.786C164.905,217.176,163.401,217.641,161.895,217.641z
	 M89.901,150.268l17.582,14.215c2.24,1.812,3.203,4.774,2.455,7.557l-5.868,21.834l18.953-12.327c2.416-1.572,5.53-1.57,7.946,0
	l18.952,12.327l-5.868-21.834c-0.748-2.783,0.215-5.745,2.455-7.557l17.582-14.215l-22.58-1.167
	c-2.878-0.149-5.397-1.98-6.428-4.671l-8.086-21.113l-8.087,21.113c-1.031,2.691-3.551,4.522-6.428,4.671L89.901,150.268z"/>
<g>
	<circle style="fill:#FFE000;" cx="244.85" cy="131.38" r="13.759"/>
	<circle style="fill:#FFE000;" cx="213.27" cy="76.69" r="13.762"/>
	<circle style="fill:#FFE000;" cx="244.85" cy="194.54" r="13.759"/>
	<circle style="fill:#FFE000;" cx="213.27" cy="249.24" r="13.762"/>
</g>
<g>
</g>
<g>
</g>
<g>
</g>
<g>
</g>
<g>
</g>
<g>
</g>
<g>
</g>
<g>
</g>
<g>
</g>
<g>
</g>
<g>
</g>
<g>
</g>
<g>
</g>
<g>
</g>
<g>
</g>
</svg>
