<?xml version="1.0" encoding="iso-8859-1"?>
<!-- Generator: Adobe Illustrator 19.0.0, SVG Export Plug-In . SVG Version: 6.00 Build 0)  -->
<svg version="1.1" id="Layer_1" xmlns="http://www.w3.org/2000/svg" xmlns:xlink="http://www.w3.org/1999/xlink" x="0px" y="0px"
	 viewBox="0 0 512 512" style="enable-background:new 0 0 512 512;" xml:space="preserve">
<rect x="7.286" y="256" style="fill:#164FCE;" width="497.43" height="124.36"/>
<path style="fill:#ED1F34;" d="M7.286,395.901c0,60.095,48.717,108.812,108.812,108.812h279.803
	c60.095,0,108.812-48.717,108.812-108.812v-15.545H7.286V395.901z"/>
<path style="fill:#FFE000;" d="M395.901,7.286H116.099C56.003,7.286,7.286,56.003,7.286,116.099V256h497.427V116.099
	C504.713,56.003,455.997,7.286,395.901,7.286z"/>
<path d="M395.901,0H116.099C52.082,0,0,52.082,0,116.099v279.803C0,459.918,52.082,512,116.099,512h279.803
	C459.918,512,512,459.918,512,395.901V116.099C512,52.082,459.918,0,395.901,0z M14.573,263.286h482.854V373.07H14.573V263.286z
	 M116.099,14.573h279.803c55.982,0,101.526,45.544,101.526,101.526v132.615H14.573V116.099
	C14.573,60.118,60.117,14.573,116.099,14.573z M395.901,497.427H116.099c-55.981,0-101.526-45.545-101.526-101.526v-8.258h482.854
	v8.258C497.427,451.882,451.883,497.427,395.901,497.427z"/>
<path style="fill:#FFE000;" d="M146.469,214.81v88.256c0,16.435,13.324,29.759,29.759,29.759h159.544
	c16.436,0,29.759-13.324,29.759-29.759V214.81H146.469z"/>
<path d="M335.772,340.112H176.228c-20.427,0-37.046-16.619-37.046-37.047V214.81c0-4.025,3.262-7.286,7.286-7.286h219.063
	c4.024,0,7.286,3.262,7.286,7.286v88.255C372.818,323.493,356.199,340.112,335.772,340.112z M153.755,222.097v80.969
	c0,12.392,10.081,22.473,22.473,22.473h159.544c12.392,0,22.473-10.082,22.473-22.473v-80.969L153.755,222.097L153.755,222.097z"/>
<ellipse style="fill:#3DB4EA;" cx="256" cy="256" rx="63.14" ry="76.83"/>
<path d="M365.531,139.832h-86.318c-2.336,0-4.531,1.12-5.902,3.013L256,166.751l-17.312-23.906c-1.37-1.893-3.565-3.013-5.902-3.013
	h-86.318c-4.024,0-7.286,3.262-7.286,7.286c0,4.025,3.262,7.286,7.286,7.286h82.598l13.738,18.971
	c-32.549,7.399-57.234,41.631-57.234,82.624c0,43.441,27.719,79.295,63.144,83.663v40.694c0,4.025,3.262,7.287,7.287,7.287
	c4.024,0,7.286-3.262,7.286-7.287v-40.694c35.425-4.368,63.144-40.222,63.144-83.663c0-40.993-24.685-75.225-57.234-82.624
	l13.738-18.971h82.598c4.024,0,7.286-3.262,7.286-7.286C372.818,143.094,369.555,139.832,365.531,139.832z M311.857,256
	c0,38.344-25.057,69.538-55.857,69.538S200.143,294.344,200.143,256S225.2,186.462,256,186.462S311.857,217.656,311.857,256z"/>
<g>
</g>
<g>
</g>
<g>
</g>
<g>
</g>
<g>
</g>
<g>
</g>
<g>
</g>
<g>
</g>
<g>
</g>
<g>
</g>
<g>
</g>
<g>
</g>
<g>
</g>
<g>
</g>
<g>
</g>
</svg>
