<?xml version="1.0" encoding="iso-8859-1"?>
<!-- Generator: Adobe Illustrator 19.0.0, SVG Export Plug-In . SVG Version: 6.00 Build 0)  -->
<svg version="1.1" id="Layer_1" xmlns="http://www.w3.org/2000/svg" xmlns:xlink="http://www.w3.org/1999/xlink" x="0px" y="0px"
	 viewBox="0 0 512 512" style="enable-background:new 0 0 512 512;" xml:space="preserve">
<rect x="173.1" y="7.286" style="fill:#FFE000;" width="165.81" height="497.43"/>
<path style="fill:#ED1F34;" d="M395.901,7.286h-56.997v497.427h56.997c60.095,0,108.812-48.717,108.812-108.812V116.099
	C504.714,56.003,455.997,7.286,395.901,7.286z"/>
<path style="fill:#164FCE;" d="M116.099,7.286C56.003,7.286,7.286,56.003,7.286,116.099v279.803
	c0,60.095,48.717,108.812,108.812,108.812h56.997V7.286H116.099z"/>
<g>
	<path style="fill:#F2A643;" d="M222.354,218.995c-8.89,0-16.097,7.207-16.097,16.097v68.537l32.194-31.05v-37.487
		C238.451,226.202,231.244,218.995,222.354,218.995z"/>
	<path style="fill:#F2A643;" d="M289.646,218.995c8.89,0,16.097,7.207,16.097,16.097v68.537l-32.194-31.05v-37.487
		C273.549,226.202,280.756,218.995,289.646,218.995z"/>
</g>
<polygon style="fill:#ED1F34;" points="238.451,235.092 238.451,272.579 256,282.008 273.549,272.579 273.549,235.092 "/>
<path d="M395.901,0H116.099C52.082,0,0,52.082,0,116.099v279.803C0,459.918,52.082,512,116.099,512h279.803
	C459.918,512,512,459.918,512,395.901V116.099C512,52.082,459.918,0,395.901,0z M331.618,497.427H180.382V355.485
	c0-4.024-3.262-7.286-7.287-7.286c-4.025,0-7.286,3.262-7.286,7.286v141.942h-49.711c-55.981,0-101.526-45.544-101.526-101.526
	V116.099c0-55.982,45.544-101.526,101.526-101.526h49.711v307.75c0,4.024,3.262,7.287,7.286,7.287c4.025,0,7.287-3.262,7.287-7.287
	V14.573h151.235v482.854H331.618z M497.427,395.901c0,55.982-45.545,101.526-101.526,101.526H346.19V14.573h49.711
	c55.981,0,101.526,45.544,101.526,101.526V395.901z"/>
<path d="M203.408,310.335c0.919,0.39,1.887,0.58,2.847,0.58c1.852,0,3.675-0.706,5.06-2.042l28.368-27.361l9.03,4.852v27.859
	c0,4.024,3.262,7.286,7.286,7.286c4.025,0,7.286-3.262,7.286-7.286v-27.859l9.03-4.852l28.368,27.361
	c1.385,1.336,3.208,2.042,5.06,2.042c0.96,0,1.929-0.19,2.847-0.58c2.691-1.143,4.437-3.783,4.437-6.706v-68.537
	c0-12.894-10.49-23.383-23.383-23.383c-10.35,0-19.145,6.761-22.215,16.097h-4.145v-30.029c0-4.024-3.262-7.286-7.286-7.286h-9.249
	c-4.025,0-7.286,3.262-7.286,7.286s3.262,7.287,7.286,7.287h1.962v22.742h-4.145c-3.07-9.336-11.865-16.097-22.215-16.097
	c-12.894,0-23.383,10.49-23.383,23.383v68.537C198.971,306.552,200.717,309.192,203.408,310.335z M280.836,235.092
	c0-4.858,3.952-8.81,8.81-8.81s8.81,3.952,8.81,8.81v51.386l-17.62-16.995V235.092z M245.737,242.378h20.526v25.844L256,273.736
	l-10.263-5.514V242.378z M213.544,235.092c0-4.858,3.953-8.81,8.81-8.81s8.81,3.952,8.81,8.81v34.391l-17.62,16.995V235.092z"/>
<g>
</g>
<g>
</g>
<g>
</g>
<g>
</g>
<g>
</g>
<g>
</g>
<g>
</g>
<g>
</g>
<g>
</g>
<g>
</g>
<g>
</g>
<g>
</g>
<g>
</g>
<g>
</g>
<g>
</g>
</svg>
