<?xml version="1.0" encoding="iso-8859-1"?>
<!-- Generator: Adobe Illustrator 19.0.0, SVG Export Plug-In . SVG Version: 6.00 Build 0)  -->
<svg version="1.1" id="Layer_1" xmlns="http://www.w3.org/2000/svg" xmlns:xlink="http://www.w3.org/1999/xlink" x="0px" y="0px"
	 viewBox="0 0 512 512" style="enable-background:new 0 0 512 512;" xml:space="preserve">
<path style="fill:#ED1F34;" d="M7.286,256v139.901c0,60.095,48.717,108.812,108.812,108.812h279.803
	c60.095,0,108.812-48.717,108.812-108.812V256H256H7.286z"/>
<path style="fill:#FFFFFF;" d="M395.901,7.286H256V256h248.714V116.099C504.714,56.003,455.997,7.286,395.901,7.286z"/>
<path style="fill:#164FCE;" d="M256,7.286H116.099C56.003,7.286,7.286,56.003,7.286,116.099V256H256V7.286z"/>
<polygon style="fill:#FFFFFF;" points="75.854,119.118 116.931,116.995 131.643,78.584 146.355,116.995 187.433,119.118 
	155.448,144.979 166.123,184.702 131.643,162.275 97.163,184.702 107.839,144.979 "/>
<path d="M395.901,0H116.099C52.082,0,0,52.082,0,116.099v279.803C0,459.918,52.082,512,116.099,512h279.803
	C459.918,512,512,459.918,512,395.901V116.099C512,52.082,459.918,0,395.901,0z M116.099,14.573h132.615v234.14H14.573V116.099
	C14.573,60.118,60.117,14.573,116.099,14.573z M395.901,497.427H116.099c-55.982,0-101.526-45.545-101.526-101.526V263.286H438.39
	c4.025,0,7.287-3.262,7.287-7.286c0-4.025-3.262-7.286-7.287-7.286H263.286V14.573h132.615c55.981,0,101.526,45.544,101.526,101.526
	v132.615h-25.876c-4.025,0-7.286,3.262-7.286,7.286c0,4.025,3.262,7.286,7.286,7.286h25.876v132.615
	C497.427,451.882,451.882,497.427,395.901,497.427z"/>
<path d="M71.273,124.784l28.299,22.881l-9.445,35.146c-0.783,2.915,0.312,6.011,2.754,7.786c2.443,1.775,5.725,1.86,8.256,0.213
	l30.507-19.843l30.507,19.843c1.21,0.788,2.592,1.178,3.973,1.178c1.506,0,3.009-0.466,4.283-1.392
	c2.442-1.774,3.538-4.871,2.754-7.786l-9.445-35.146l28.299-22.881c2.348-1.898,3.282-5.047,2.349-7.917
	c-0.933-2.871-3.539-4.87-6.554-5.026l-36.344-1.878l-13.017-33.985c-1.08-2.819-3.786-4.68-6.805-4.68
	c-3.018,0-5.725,1.862-6.805,4.68l-13.017,33.985l-36.344,1.878c-3.014,0.156-5.621,2.155-6.554,5.026
	C67.991,119.737,68.925,122.886,71.273,124.784z M117.307,124.272c2.878-0.149,5.397-1.98,6.428-4.671l7.907-20.645l7.908,20.645
	c1.031,2.691,3.551,4.522,6.428,4.671l22.079,1.14l-17.191,13.9c-2.241,1.812-3.204,4.774-2.456,7.557l5.738,21.351l-18.532-12.055
	c-1.208-0.786-2.59-1.178-3.973-1.178c-1.383,0-2.765,0.393-3.973,1.178l-18.532,12.055l5.738-21.351
	c0.748-2.783-0.215-5.745-2.456-7.557l-17.191-13.9L117.307,124.272z"/>
<g>
</g>
<g>
</g>
<g>
</g>
<g>
</g>
<g>
</g>
<g>
</g>
<g>
</g>
<g>
</g>
<g>
</g>
<g>
</g>
<g>
</g>
<g>
</g>
<g>
</g>
<g>
</g>
<g>
</g>
</svg>
