<?xml version="1.0" encoding="iso-8859-1"?>
<!-- Generator: Adobe Illustrator 19.0.0, SVG Export Plug-In . SVG Version: 6.00 Build 0)  -->
<svg version="1.1" id="Layer_1" xmlns="http://www.w3.org/2000/svg" xmlns:xlink="http://www.w3.org/1999/xlink" x="0px" y="0px"
	 viewBox="0 0 512 512" style="enable-background:new 0 0 512 512;" xml:space="preserve">
<path style="fill:#FFFFFF;" d="M395.901,7.286H116.099C56.003,7.286,7.286,56.003,7.286,116.099v279.803
	c0,60.095,48.717,108.812,108.812,108.812h279.803c60.095,0,108.812-48.717,108.812-108.812V116.099
	C504.714,56.003,455.997,7.286,395.901,7.286z"/>
<g>
	<polygon style="fill:#ED1F34;" points="288.886,223.114 288.886,7.286 223.115,7.286 223.115,223.114 7.286,223.114 7.286,288.885 
		223.115,288.885 223.115,504.714 288.886,504.714 288.886,288.885 504.714,288.885 504.714,223.114 	"/>
	<path style="fill:#ED1F34;" d="M137.447,386.922h-14.96v-14.96c0-4.024-3.262-7.286-7.286-7.286c-4.025,0-7.287,3.262-7.287,7.286
		v14.96h-14.96c-4.025,0-7.287,3.262-7.287,7.286s3.262,7.287,7.287,7.287h14.959v14.96c0,4.024,3.262,7.287,7.287,7.287
		s7.286-3.262,7.286-7.287v-14.96h14.96c4.025,0,7.286-3.262,7.286-7.287S141.471,386.922,137.447,386.922z"/>
	<path style="fill:#ED1F34;" d="M92.954,125.078h14.959v14.96c0,4.024,3.262,7.286,7.287,7.286s7.286-3.262,7.286-7.286v-14.96
		h14.96c4.025,0,7.286-3.262,7.286-7.286s-3.262-7.287-7.286-7.287h-14.96v-14.96c0-4.024-3.262-7.287-7.286-7.287
		c-4.025,0-7.287,3.262-7.287,7.287v14.96H92.954c-4.025,0-7.287,3.262-7.287,7.287S88.93,125.078,92.954,125.078z"/>
	<path style="fill:#ED1F34;" d="M419.046,386.922h-14.959v-14.96c0-4.024-3.262-7.286-7.286-7.286c-4.025,0-7.286,3.262-7.286,7.286
		v14.96h-14.96c-4.025,0-7.286,3.262-7.286,7.286s3.262,7.287,7.286,7.287h14.96v14.96c0,4.024,3.262,7.287,7.286,7.287
		c4.025,0,7.286-3.262,7.286-7.287v-14.96h14.959c4.025,0,7.287-3.262,7.287-7.287S423.07,386.922,419.046,386.922z"/>
	<path style="fill:#ED1F34;" d="M374.553,125.078h14.96v14.96c0,4.024,3.262,7.286,7.286,7.286c4.025,0,7.286-3.262,7.286-7.286
		v-14.96h14.959c4.025,0,7.287-3.262,7.287-7.286s-3.262-7.287-7.287-7.287h-14.959v-14.96c0-4.024-3.262-7.287-7.286-7.287
		c-4.025,0-7.286,3.262-7.286,7.287v14.96h-14.96c-4.025,0-7.286,3.262-7.286,7.287S370.529,125.078,374.553,125.078z"/>
</g>
<path d="M395.901,0H116.099C52.082,0,0,52.082,0,116.099v279.803C0,459.918,52.082,512,116.099,512h279.803
	C459.918,512,512,459.918,512,395.901V116.099C512,52.082,459.918,0,395.901,0z M497.427,116.099v99.729h-25.876
	c-4.025,0-7.286,3.262-7.286,7.286s3.262,7.287,7.286,7.287h25.876v51.198H288.886c-4.025,0-7.286,3.262-7.286,7.286v208.542
	h-51.198V288.885c0-4.024-3.262-7.286-7.286-7.286H14.573v-51.198h208.542c4.025,0,7.286-3.262,7.286-7.287V14.573H281.6v208.541
	c0,4.024,3.262,7.287,7.286,7.287H438.39c4.025,0,7.287-3.262,7.287-7.287s-3.262-7.286-7.287-7.286H296.173V14.573h99.729
	C451.882,14.573,497.427,60.117,497.427,116.099z M116.099,14.573h99.73v201.255H14.573v-99.729
	C14.573,60.117,60.118,14.573,116.099,14.573z M14.573,395.901v-99.73h201.255v201.255h-99.73
	C60.118,497.427,14.573,451.883,14.573,395.901z M395.901,497.427h-99.729V296.172h201.254v99.73
	C497.427,451.883,451.882,497.427,395.901,497.427z"/>
<g>
</g>
<g>
</g>
<g>
</g>
<g>
</g>
<g>
</g>
<g>
</g>
<g>
</g>
<g>
</g>
<g>
</g>
<g>
</g>
<g>
</g>
<g>
</g>
<g>
</g>
<g>
</g>
<g>
</g>
</svg>
