<?xml version="1.0" encoding="iso-8859-1"?>
<!-- Generator: Adobe Illustrator 19.0.0, SVG Export Plug-In . SVG Version: 6.00 Build 0)  -->
<svg version="1.1" id="Layer_1" xmlns="http://www.w3.org/2000/svg" xmlns:xlink="http://www.w3.org/1999/xlink" x="0px" y="0px"
	 viewBox="0 0 512 512" style="enable-background:new 0 0 512 512;" xml:space="preserve">
<path style="fill:#ED1F34;" d="M395.901,7.287H116.099C56.003,7.287,7.286,56.003,7.286,116.099v279.803
	c0,60.095,48.717,108.812,108.812,108.812h279.803c60.095,0,108.812-48.717,108.812-108.812V116.099
	C504.714,56.003,455.997,7.287,395.901,7.287z"/>
<polygon style="fill:#FFFFFF;" points="361.012,219.246 292.754,219.246 292.754,150.988 219.246,150.988 219.246,219.246 
	150.988,219.246 150.988,292.754 219.246,292.754 219.246,361.012 292.754,361.012 292.754,292.754 361.012,292.754 "/>
<path d="M361.012,211.959h-60.971v-60.972c0-4.024-3.262-7.287-7.286-7.287h-73.509c-4.025,0-7.286,3.262-7.286,7.287v60.972
	h-60.971c-4.025,0-7.287,3.262-7.287,7.286v73.509c0,4.024,3.262,7.286,7.287,7.286h60.971v60.971c0,4.024,3.262,7.287,7.286,7.287
	h73.509c4.025,0,7.286-3.262,7.286-7.287V300.04h60.971c4.025,0,7.287-3.262,7.287-7.286v-73.509
	C368.299,215.221,365.037,211.959,361.012,211.959z M353.726,285.468h-60.971c-4.025,0-7.287,3.262-7.287,7.287v60.971h-58.935
	v-60.971c0-4.024-3.262-7.287-7.287-7.287h-60.971v-58.935h60.971c4.025,0,7.287-3.262,7.287-7.287v-60.971h58.935v60.971
	c0,4.024,3.262,7.287,7.287,7.287h60.971L353.726,285.468L353.726,285.468z"/>
<path d="M395.901,0H116.099C52.082,0,0,52.082,0,116.099v279.803C0,459.918,52.082,512,116.099,512h279.803
	C459.918,512,512,459.918,512,395.901V116.099C512,52.082,459.918,0,395.901,0z M497.427,395.901
	c0,55.982-45.545,101.526-101.526,101.526H116.099c-55.981,0-101.526-45.544-101.526-101.526V116.099
	c0-55.982,45.544-101.526,101.526-101.526h279.803c55.981,0,101.526,45.544,101.526,101.526v279.802H497.427z"/>
<g>
</g>
<g>
</g>
<g>
</g>
<g>
</g>
<g>
</g>
<g>
</g>
<g>
</g>
<g>
</g>
<g>
</g>
<g>
</g>
<g>
</g>
<g>
</g>
<g>
</g>
<g>
</g>
<g>
</g>
</svg>
