<?xml version="1.0" encoding="iso-8859-1"?>
<!-- Generator: Adobe Illustrator 19.0.0, SVG Export Plug-In . SVG Version: 6.00 Build 0)  -->
<svg version="1.1" id="Layer_1" xmlns="http://www.w3.org/2000/svg" xmlns:xlink="http://www.w3.org/1999/xlink" x="0px" y="0px"
	 viewBox="0 0 392.533 392.533" style="enable-background:new 0 0 392.533 392.533;" xml:space="preserve">
<path style="fill:#56ACE0;" d="M348.994,231.887h-95.289c-12.024,0-21.786,9.826-21.786,21.786v95.224
	c0,12.024,9.826,21.786,21.786,21.786h95.224c12.024,0,21.786-9.826,21.786-21.786v-95.224
	C370.78,241.713,360.953,231.887,348.994,231.887z"/>
<path style="fill:#FFFFFF;" d="M138.893,231.887H43.604c-12.024,0-21.786,9.826-21.786,21.786v95.224
	c0,12.024,9.826,21.786,21.786,21.786h95.224c12.024,0,21.786-9.826,21.786-21.786v-95.224
	C160.679,241.713,150.852,231.887,138.893,231.887z"/>
<path style="fill:#FFC10D;" d="M148.719,21.786c-12.024,0-21.786,9.826-21.786,21.786v95.224c0,12.024,9.826,21.786,21.786,21.786
	h95.224c12.024,0,21.786-9.826,21.786-21.786V43.572c0-12.024-9.826-21.786-21.786-21.786
	C243.943,21.786,148.719,21.786,148.719,21.786z"/>
<g>
	<path style="fill:#194F82;" d="M138.893,392.533H43.604c-24.048,0-43.572-19.523-43.572-43.572v-95.224
		c0-24.048,19.523-43.572,43.572-43.572h95.224c24.048,0,43.572,19.523,43.572,43.572v95.224
		C182.465,373.01,162.941,392.533,138.893,392.533z M43.604,231.952c-12.024,0-21.786,9.826-21.786,21.786v95.224
		c0,12.024,9.826,21.786,21.786,21.786h95.224c12.024,0,21.786-9.826,21.786-21.786v-95.224c0-12.024-9.826-21.786-21.786-21.786
		L43.604,231.952L43.604,231.952z"/>
	<path style="fill:#194F82;" d="M348.994,392.533h-95.289c-24.048,0-43.572-19.523-43.572-43.572v-95.224
		c0-24.048,19.523-43.572,43.572-43.572h95.224c24.048,0,43.572,19.523,43.572,43.572v95.224
		C392.566,373.01,373.042,392.533,348.994,392.533z M253.705,231.952c-12.024,0-21.786,9.826-21.786,21.786v95.224
		c0,12.024,9.826,21.786,21.786,21.786h95.224c12.024,0,21.786-9.826,21.786-21.786v-95.224c0-12.024-9.826-21.786-21.786-21.786
		L253.705,231.952L253.705,231.952z"/>
	<path style="fill:#194F82;" d="M237.414,129.81c1.551,6.594-2.715,11.442-7.758,11.442c-3.297,0-6.4-2.004-7.758-5.301
		l-6.271-15.58H176.84l-6.335,15.58c-1.293,3.297-4.396,5.301-7.758,5.301c-4.848,0-10.149-5.947-7.758-11.442l33.358-83.459
		c1.293-3.168,4.396-5.301,7.887-5.301c3.297,0,6.4,2.133,7.758,5.301L237.414,129.81z M208.97,103.758l-12.606-31.935
		l-12.735,31.935H208.97z"/>
	<path style="fill:#194F82;" d="M243.879,0h-95.16c-24.048,0-43.572,19.523-43.572,43.572v95.224
		c0,24.048,19.523,43.572,43.572,43.572h95.224c24.048,0,43.572-19.523,43.572-43.572V43.572C287.45,19.523,267.927,0,243.879,0z
		 M265.665,138.796c0,12.024-9.826,21.786-21.786,21.786h-95.16c-12.024,0-21.786-9.826-21.786-21.786V43.572
		c0-12.024,9.826-21.786,21.786-21.786h95.224c12.024,0,21.786,9.826,21.786,21.786v95.224H265.665z"/>
	<path style="fill:#194F82;" d="M111.741,294.141c2.844-4.331,4.396-9.762,4.396-15.774c0.323-16.614-11.766-26.57-27.022-27.216
		H66.101c-4.59,0-8.275,3.685-8.275,8.275v83.588c0,4.59,3.685,8.275,8.275,8.275h29.22c13.446,0,29.349-12.024,29.349-31.354
		C124.671,308.752,120.081,299.572,111.741,294.141z M74.57,267.96h14.61c0,0,10.408,0.84,10.408,10.408
		c0,10.02-10.408,10.408-12.606,10.408H74.57C74.57,288.776,74.57,267.96,74.57,267.96z M94.287,334.675H74.57v-29.22h19.717
		c10.279,0,13.446,9.244,13.576,14.61C108.38,334.61,94.481,334.675,94.287,334.675z"/>
	<path style="fill:#194F82;" d="M339.555,334.093c2.133,4.008,0.517,9.051-3.426,11.313c-7.24,3.879-15.451,6.012-23.855,6.012
		c-27.604,0-50.101-22.497-50.101-50.101s22.497-50.101,50.101-50.101c8.404,0,16.614,2.133,23.855,6.012
		c4.008,2.327,5.56,7.24,3.426,11.313c-2.327,4.202-7.24,5.56-11.442,3.426c-4.719-2.715-10.279-4.008-15.903-4.008
		c-18.295,0-33.358,14.933-33.358,33.358c0,18.489,14.998,33.358,33.358,33.358c5.56,0,11.119-1.293,15.903-4.008
		C332.315,328.533,337.293,329.956,339.555,334.093z"/>
</g>
<g>
</g>
<g>
</g>
<g>
</g>
<g>
</g>
<g>
</g>
<g>
</g>
<g>
</g>
<g>
</g>
<g>
</g>
<g>
</g>
<g>
</g>
<g>
</g>
<g>
</g>
<g>
</g>
<g>
</g>
</svg>
